<?xml version="1.0" encoding="utf-8"?><svg viewBox="0 0 50 45" xmlns="http://www.w3.org/2000/svg" xmlns:xlink="http://www.w3.org/1999/xlink"><style>:root>svg{display:none}:root>svg:target{display:block}</style><svg fill="none" viewBox="0 0 6 5" id="check-arrow-icon" xmlns="http://www.w3.org/2000/svg"><path d="M3 5L.402.5h5.196L3 5z" fill="#000"/></svg><svg fill="none" viewBox="0 0 50 45" id="check-icon" xmlns="http://www.w3.org/2000/svg"><path d="M15.938 45l-.546-.923C11.304 37.15.428 22.438.32 22.29L0 21.86l4.09-4.02 11.71 8.13c7.338-9.43 14.174-15.919 18.646-19.722 4.94-4.202 8.068-6.082 8.198-6.16L42.791 0H50l-1.22 1.081C33.361 14.734 16.637 43.778 16.47 44.07l-.532.93z" fill="#D9C38D"/></svg><svg fill="none" viewBox="0 0 30 20" id="rus-icon" xmlns="http://www.w3.org/2000/svg"><path d="M0 0v20h30V0H0z" fill="#F0F0F0"/><path d="M0 0h30v20H0V0z" fill="#0052B4"/><path d="M0 0h30v6.667H0V0z" fill="#fff"/><path d="M0 13.333h30V20H0v-6.667z" fill="#D80027"/></svg></svg>