<?xml version="1.0" encoding="utf-8"?><svg viewBox="0 0 56 56" xmlns="http://www.w3.org/2000/svg" xmlns:xlink="http://www.w3.org/1999/xlink"><style>:root>svg{display:none}:root>svg:target{display:block}</style><svg fill="none" viewBox="0 0 56 56" id="arrow-icon" xmlns="http://www.w3.org/2000/svg"><path d="M28 56c15.464 0 28-12.536 28-28S43.464 0 28 0 0 12.536 0 28c.017 15.457 12.543 27.983 28 28zm0-53.2c13.918 0 25.2 11.283 25.2 25.2 0 13.918-11.282 25.2-25.2 25.2C14.083 53.2 2.8 41.918 2.8 28 2.816 14.09 14.09 2.816 28 2.8z" fill="#D9C38D"/><path d="M31.28 38.854a1.4 1.4 0 101.842-2.108L23.127 28l9.996-8.746a1.4 1.4 0 10-1.843-2.108l-11.2 9.8a1.4 1.4 0 000 2.108l11.2 9.8z" fill="#D9C38D"/></svg><svg fill="none" viewBox="0 0 6 5" id="check-arrow-icon" xmlns="http://www.w3.org/2000/svg"><path d="M3 5L.402.5h5.196L3 5z" fill="#000"/></svg><svg fill="none" viewBox="0 0 50 45" id="check-icon" xmlns="http://www.w3.org/2000/svg"><path d="M15.938 45l-.546-.923C11.304 37.15.428 22.438.32 22.29L0 21.86l4.09-4.02 11.71 8.13c7.338-9.43 14.174-15.919 18.646-19.722 4.94-4.202 8.068-6.082 8.198-6.16L42.791 0H50l-1.22 1.081C33.361 14.734 16.637 43.778 16.47 44.07l-.532.93z" fill="#D9C38D"/></svg><svg fill="none" viewBox="0 0 53 22" id="isart-logo-icon" xmlns="http://www.w3.org/2000/svg"><g clip-path="url(#da)" fill-rule="evenodd" clip-rule="evenodd" fill="#686972"><path d="M.8 18.19c.01-.086.028-.173.048-.25l.057-.318c.01-.048.01-.105.03-.163.009-.048.018-.087.028-.125.01-.087.029-.174.039-.27.01-.086.038-.173.048-.24 0-.058.086-.549.106-.587 0-.077.115-.8.134-.838.01-.134.058-.288.068-.423.01-.154.067-.356.086-.51.01-.135.049-.308.068-.443a2.28 2.28 0 01.038-.221c.01-.058.03-.116.03-.193.028-.096.038-.279.067-.356.01-.144.048-.289.067-.433.01-.058.02-.096.029-.164.01-.048 0-.086.029-.106 0-.125.048-.25.048-.356.029-.163.067-.337.086-.5l.058-.337c.01-.038.02-.125.029-.164.01-.057.02-.077.02-.134.009-.087.028-.174.047-.26.01-.068.039-.173.039-.231a3.6 3.6 0 00.048-.289c.01-.192.087-.385.087-.587a1.25 1.25 0 00.048-.26c.019-.096.038-.202.048-.289l.087-.529a.267.267 0 00.01-.087c0-.019 0-.019.009-.038l.01-.02c0-.144.048-.317.067-.452 0-.057.048-.337.067-.365 0-.126.039-.174.039-.29.01-.047.048-.22.048-.278 0-.068.02-.096.029-.164l.077-.404c0-.125.019-.183.038-.299.01-.038.039-.22.048-.269.01-.087.03-.144.039-.24.01-.068.087-.607.115-.636 0-.086.01-.106.03-.183.009-.067.047-.404.076-.433 0-.106.02-.183.039-.289.019-.096.019-.163.048-.24l.106-.606c0-.078.086-.597.106-.626 0-.087.077-.549.105-.606 0-.068.049-.366.068-.405 0-.086.029-.24.048-.327 0-.058.125-.77.135-.808 0-.135.048-.299.067-.433 0-.077.01-.058.02-.116h20.933l-.097.635c-.019.096.01.039-.038.077l.01.048c-.03.145-.106.78-.155.847.01.087-.077.664-.115.722.01.096-.077.578-.106.693l-.058.327-.183 1.001c.01.068-.076.597-.105.645.01.144-.049.366-.077.52l-.087.51c-.01.02-.01.02-.01.038l-.01.03c.01.076-.009.26-.057.317.01.106-.038.308-.058.414-.019.115-.096.673-.134.722.01.086-.058.548-.106.606.01.048-.039.443-.087.5.02.125-.096.597-.116.77-.028.106-.038.222-.057.328l-.068.336c.01.048-.048.54-.105.616.019.077-.01.26-.058.318.01.087-.02.183-.03.28l-.105.528c.01.068-.02.29-.058.337.01.097-.038.433-.086.5.01.097-.02.203-.039.3-.01.066-.029.24-.067.288.01.058 0 .106-.01.163 0 .03-.01.058-.019.087-.01.058 0 .029-.029.067.01.068 0 .106-.01.164 0 .02-.01.058-.01.077-.009.058 0 .029-.028.068l-.058.452c-.038.115.039-.096-.01.029 0 0-.01.019-.01.01 0 0 0 .009-.009.009.01.058 0 .106-.01.164l-.038.144c.02.077-.048.481-.087.539.01.096-.057.548-.105.606.01.096-.039.453-.087.51.01.077-.01.25-.048.308.01.087-.02.193-.039.29l-.067.423c-.01.067-.048.336-.077.394.02.096-.02.221-.038.327-.02.097-.02.231-.068.299.01.086-.02.183-.029.27-.01.076-.019.192-.057.24.019.115-.049.356-.068.481-.02.125-.019.356-.087.443.01.096-.038.452-.086.51.01.086-.067.568-.106.616.01.115-.058.433-.077.568-.02.144.01.163-.135.173H2.936v-.01c-.577 0-1.155 0-1.723.01H.183c.01-.077.03-.164.049-.25l.077-.5c.01-.04.029-.213.048-.232 0-.058.067-.5.087-.53 0-.067.019-.163.028-.22.212-1.233.049-.164.299-1.79l.029.028zm4.388 1.675h3.253c1.01-4.976 2.358-12.906 3.253-18.113H8.47c.039 1.145-3.128 17.256-3.272 18.123l-.01-.01zm8.143-5.265c-.03.068-.039.193-.049.28-.01.086-.048.192-.048.288 0 .058-.029.135-.038.193-.01.067-.03.154-.039.23a2.09 2.09 0 00-.067.395c-.029.039-.106.53-.106.616l-.106.54c-.02.144-.067.26-.048.442.029.289.28.471.587.423.231-.038.212-.057.366-.144.058-.096.289-.289.27-.443.038-.057.105-.5.115-.568.029-.125.106-.51.096-.606l.01-.029c0-.01.077-.23.057-.365l.03-.097c.009-.029.009-.067.018-.106.01-.067.039-.144.02-.211.01-.02.01 0 .019-.039l.02-.086c.009-.068.009-.068.009-.126.048-.057.067-.317.086-.413.02-.125.087-.395.077-.5l.068-.29c.019-.105.048-.211.038-.308.03-.038.03-.096.02-.154.086-.134-.049-.654-.097-.798-.048-.135-.298-.54-.375-.578-.02-.048-.231-.337-.28-.366-.018-.057 0-.01-.038-.057l-.27-.337-.066-.106c-.087-.106-.491-.635-.53-.645-.019-.067-.183-.26-.24-.327-.049-.058-.212-.289-.25-.308-.02-.039-.25-.366-.29-.385-.048-.116-.134-.222-.202-.337a1.583 1.583 0 01-.096-.183c-.019-.048-.048-.144-.077-.183-.038-.221-.058-.327-.048-.568l.087-.615.144-.809c.029-.135.106-.481.087-.597.048-.067.086-.375.086-.471.039-.048.116-.54.106-.607.068-.106.096-.558.145-.721.019-.135.096-.434.086-.549.02-.02.01 0 .02-.039l.038-.163c.02-.068.048-.145.038-.212.03-.038.02-.02.039-.077.01-.029.02-.048.029-.077.02-.058.038-.096.038-.164.048-.048.106-.211.135-.288l.154-.289c.048-.029.096-.106.135-.154.048-.067.087-.096.144-.144.048-.039.318-.222.327-.241.087-.029.183-.096.28-.135.096-.038.182-.077.288-.106.222-.067.414-.096.655-.115.683-.02 1.386 0 2.079 0 .664 0 1.29.058 1.645.443.077.077.241.298.29.433.038.115.086.202.115.327a1.921 1.921 0 01.019.664c-.01.077-.029.173-.029.26-.01.087-.038.192-.048.279-.01.096-.029.231-.058.308 0 .067-.029.173-.038.25-.02.096-.039.193-.049.28a2.47 2.47 0 00-.048.288c-.01.067-.028.144-.048.231-.019.096-.038.183-.038.28-.03.086-.039.201-.058.307-.02.125-.038.222-.058.337 0 .067-.038.23-.048.289-.01.057-.01.077-.019.144-.01.048-.029.106-.029.173-.01.068-.029.154-.048.231-.02.087-.038.183-.038.26-.01.058-.03.135-.049.212l-2.57.01c0-.183.116-.51.106-.684.049-.058.097-.423.087-.51.02-.029.01 0 .02-.048l.076-.51c.058-.067.106-.616.145-.741.019-.135.077-.337.067-.462.039-.058.039-.202.067-.27l.01-.096.029-.125c.077-.375-.067-.703-.462-.703-.318 0-.645.193-.741.462-.02.049-.02.077-.039.116-.019.096-.048.23-.048.327-.019.087-.029.145-.048.24-.02.097-.038.174-.038.28l-.039.144-.029.173c-.019.126-.048.241-.058.357-.028.019-.019.077-.028.125-.01.067-.02.086-.03.144-.009.087-.047.212-.047.298-.02.077-.03.145-.049.241-.019.096-.038.173-.038.28-.029.038-.067.317-.077.413-.01.067-.029.337-.01.404.02.058-.019.02.03.048-.049.135.124.472.201.607.049.077-.01.029.068.067-.01.048-.01.01 0 .048 0 .02.019.039.029.058l.462.626c.038.028-.03 0 .038.028 0 .058.231.328.28.366l.346.404c0 .01-.02.01.029.077l.433.54.24.298c.068.086.039.067.096.096.01.058.145.221.183.289.077.115.145.279.202.308-.019.057-.01.019.02.086.019.03.019.039.038.087l.125.356c.039.144.01.154.058.193-.048.115-.02.288-.02.413-.009.077-.018.097-.018.193-.02.029-.087.5-.087.577-.029.03 0-.01-.02.039 0 .01-.009.067-.009.067-.01.068-.02.106-.02.164a3.928 3.928 0 00-.086.49 2.401 2.401 0 00-.048.29c-.01.105-.048.202-.048.327-.02.019-.02.067-.029.106-.01.057-.01.086-.02.134-.018.097-.028.203-.047.29 0 .095-.048.23-.048.346-.02.028-.049.22-.049.279-.019.134-.057.27-.067.414-.02.048-.067.336-.067.413-.03.02-.03.096-.03.135-.009.067-.018.096-.028.164-.02.115-.048.24-.058.356a1.45 1.45 0 00-.048.211c-.02.068-.048.174-.058.25l-.163.463c-.087.212-.193.337-.231.433-.02.01-.135.173-.164.212-.038.048-.048.057-.086.105l-.106.116c-.077.106-.385.327-.53.385-.077.029-.144.048-.221.096-.087.01-.424.125-.732.135l-.856.02c-.164 0-.27.018-.414.018h-1.116c-.106 0-.126-.019-.222-.019-.048 0-.183-.029-.24-.038-.039-.01-.068-.01-.116-.02s-.067-.028-.125-.028c-.337-.077-.433-.193-.606-.318-.03-.02-.01-.01-.03-.02-.028-.047 0-.009-.038-.057-.01-.02-.019-.02-.028-.038l-.328-.616c-.01-.087-.038-.164-.048-.25-.01-.097.01-.184-.01-.27.03-.058.068-.5.078-.606.019-.154.096-.472.086-.597a.759.759 0 00.058-.327l.01-.03s.086-.317.067-.442c.038-.048.135-.616.125-.703l.038-.144c.01-.067.03-.106.01-.164l.02-.057c0-.01.009-.048.009-.058.01-.039.01-.077.02-.116.009-.076.038-.163.028-.24.048-.067.096-.385.087-.481.038-.058.115-.597.134-.712.058-.049 1.213-.02 1.28-.02h1.31l-.097.568-.038.222c-.02.105-.058.211-.058.327h-.039zm19.152-6.237l.077 1.213c.01.068.01.116.01.212 0 .096.018.106.018.202 0 .27.048.549.048.828l.03.394c.019.145.019.28.019.424 0 .115.028.279.038.394l.029.597c0 .096.02.116.02.202l.047.828c0 .096.02.106.02.202 0 .24.028.356.028.616l.039.414h-1.713l.317-1.636c.048-.28.116-.54.164-.818.02-.135.048-.26.077-.405.029-.144.058-.27.077-.413l.318-1.637c.057-.27.096-.548.163-.818l.116-.606c.01-.039.01-.048.019-.106l.029-.106.01.02zm9.278 2.869h-1.666c-.067 0-.038-.058-.038-.135l.192-3.051c0-.096.02-.106.02-.193l.057-1.02c.01-.067.01-.125.01-.202 0-.173.048-.606.048-.808 0-.097.02-.116.02-.202l.019-.414c.01-.116.028-.29.028-.414h1.781c.49 0 .346.366.346.75l-.22 3.446c0 .077.009.144 0 .221-.05.434-.05.992-.097 1.415-.029.26.077.597-.5.597v.01zm-11.646 8.97l.115-.568.116-.587c.038-.193.077-.385.115-.587.039-.193.077-.395.126-.578h2.54c0 .164.048.423.048.587.01.289.058.587.068.876.01.193.048.395.048.597 0 .086-.01.26.067.26h6.073c.077 0 .049-.135.068-.328.019-.24.019-.5.048-.74.01-.058 0-.126 0-.184l.067-.933c.02-.173.01-.395.039-.568.029-.183.019-.375.038-.568.01-.058 0-.115.01-.183l.096-1.492c0-.077 0-.125.01-.202a6.67 6.67 0 00.048-.76h.443c.067 0 .057.087.077.144l.49 2.06.183.76c.193.751.376 1.492.54 2.252l.134.568c.02.068.01.164.077.164h3.821c0-.087-.067-.28-.096-.375l-.395-1.473c-.154-.626-.346-1.242-.5-1.867-.154-.616-.347-1.242-.491-1.858-.03-.125-.077-.25-.106-.375.472 0 .828-.125 1.088-.337a1.83 1.83 0 00.693-1.463l.211-3.368c.02-.106.01-.24.029-.337l.039-.684c0-.077.01-.096.019-.154.01-.067 0-.115.01-.182.028-.164.019-.337.028-.5l.048-.675c.01-.163.01-.356.03-.52l.057-1.02h1.145c0 .318-.048.626-.048.944l-.067.943c-.02.163-.01.317-.02.481l-.067.943c0 .174-.01.337-.029.481l-.23 3.793c-.02.134-.02.336-.03.471 0 .087-.019.116-.019.221l-.308 5.005c-.01.145-.038.318-.038.462l-.058.953c-.02.144-.029.318-.029.481h3.773c.077 0 .048-.106.048-.192 0-.154.039-.308.039-.481l.077-1.194a3.64 3.64 0 00.029-.472c0-.086.019-.125.019-.24 0-.116.019-.144.019-.24 0-.126.01-.347.029-.472.029-.164.01-.327.029-.491.01-.144.029-.308.029-.462l.038-.481c0-.106.01-.145.02-.222l.038-.74c.019-.28.057-.665.067-.944l.048-.963c.01-.144.039-.307.039-.461 0-.164.029-.328.038-.482.01-.336.039-.625.048-.962l.337-5.226c.01-.087.01-.154.01-.25 0-.087.02-.126.02-.241h2.502c-.068-.28-.116-.568-.183-.866l-.26-1.3c-.03-.154-.058-.288-.087-.442-.029-.135-.058-.289-.087-.424-.028-.154-.077-.298-.077-.452h-6.93c-.009.067-.028.115-.047.173-.058.164-.135.347-.173.51h-.039c-.02-.067-.087-.115-.135-.163a1.449 1.449 0 00-.356-.241c-.318-.192-.818-.28-1.242-.28H36.91c0 .26-.039.463-.039.704 0 .077-.01.105-.01.154-.01.067 0 .125-.01.182-.009.097-.018.25-.028.347-.01.058 0 .115 0 .173l-.058.886c-.029.211-.038.789-.057 1.058l-.03.52c0 .183-.038.337-.038.51l-.106 1.578c-.01.29-.057.588-.048.876 0 .29-.038.587-.048.876l-.135 2.079c0 .414-.067.837-.067 1.251h-.02c0-.346-.124-1-.153-1.386l-.03-.23c-.009-.097-.009-.145-.018-.232l-.328-2.762c-.086-.606-.125-1.241-.221-1.838l-.058-.462-.49-4.158c-.02-.173-.04-.115-.405-.115h-3.619l-.654 2.704c-.51 2.03-.982 4.071-1.492 6.111a17.18 17.18 0 00-.164.674l-1.068 4.399-.086.346-.992 4.071c-.01.03-.086.337-.086.337.01.048 0 .029.057.029h3.706v.038z"/></g><defs><clipPath id="da"><path fill="#fff" transform="translate(.184)" d="M0 0h52.338v21.684H0z"/></clipPath></defs></svg><svg fill="none" viewBox="0 0 38 38" id="modal-close-icon" xmlns="http://www.w3.org/2000/svg"><path d="M3.807 3l30.386 32M35 3.807L3 34.194" stroke="#111010" stroke-width="6.3"/></svg></svg>