<svg width="120" height="50" fill="none" xmlns="http://www.w3.org/2000/svg"><path d="M44.88 39v-.4l.84-.28c.533-.187.88-.427 1.04-.72.16-.32.24-.76.24-1.32V15.36c0-.533-.08-.947-.24-1.24-.133-.32-.453-.573-.96-.76l-.92-.36v-.4h11.44c3.147 0 5.56.6 7.24 1.8 1.68 1.173 2.52 2.813 2.52 4.92 0 1.173-.44 2.347-1.32 3.52-.88 1.173-2.267 2.08-4.16 2.72l5.56 11.04c.24.453.507.827.8 1.12.32.267.733.507 1.24.72l.52.2V39h-7.16l-5.92-12.6h-2.72v9.88c0 .507.08.92.24 1.24.16.32.493.56 1 .72l.96.36v.4H44.88Zm8.04-13.4h1.92c1.92 0 3.307-.507 4.16-1.52.853-1.04 1.28-2.573 1.28-4.6 0-2.053-.4-3.573-1.2-4.56-.8-1.013-2.147-1.52-4.04-1.52h-2.12v12.2Zm29.976 14.12c-2.72 0-5.12-.56-7.2-1.68-2.053-1.147-3.667-2.76-4.84-4.84-1.147-2.107-1.72-4.587-1.72-7.44 0-2.773.573-5.2 1.72-7.28s2.8-3.693 4.96-4.84c2.187-1.173 4.827-1.76 7.92-1.76 1.413 0 2.72.16 3.92.48a14.63 14.63 0 0 1 3.48 1.4l.16 5.6h-.4l-2.24-4.16c-.347-.667-.667-1.147-.96-1.44a2.937 2.937 0 0 0-1.12-.68 7.688 7.688 0 0 0-1.2-.28c-.347-.08-.813-.12-1.4-.12-1.653 0-3.12.44-4.4 1.32-1.253.88-2.227 2.28-2.92 4.2-.693 1.92-1.04 4.44-1.04 7.56 0 3.093.32 5.613.96 7.56.667 1.947 1.6 3.373 2.8 4.28 1.2.88 2.587 1.32 4.16 1.32.24 0 .467-.013.68-.04.24-.053.467-.107.68-.16.507-.08.84-.293 1-.64.16-.347.24-.76.24-1.24v-7.92c0-1.04-.533-1.68-1.6-1.92l-1.84-.48v-.4h11.28v.4l-.56.16c-1.013.32-1.52.987-1.52 2v8.68c-1.387.773-2.8 1.36-4.24 1.76-1.413.4-3 .6-4.76.6Zm26.721 0c-2.587 0-4.934-.52-7.04-1.56-2.08-1.067-3.734-2.64-4.96-4.72-1.227-2.08-1.84-4.627-1.84-7.64 0-2.293.373-4.307 1.12-6.04.746-1.733 1.76-3.187 3.04-4.36a13.1 13.1 0 0 1 4.48-2.64 16.488 16.488 0 0 1 5.4-.88c1.52 0 2.92.173 4.2.52 1.28.347 2.48.827 3.6 1.44l.16 4.92h-.4l-2-3.2a8.549 8.549 0 0 0-.88-1.36 3.003 3.003 0 0 0-1.2-.96c-.4-.187-.8-.32-1.2-.4-.374-.107-.854-.16-1.44-.16-1.547 0-2.96.413-4.24 1.24-1.254.827-2.267 2.2-3.04 4.12-.747 1.893-1.12 4.493-1.12 7.8 0 3.28.36 5.88 1.08 7.8.72 1.893 1.693 3.253 2.92 4.08 1.253.8 2.653 1.2 4.2 1.2.853 0 1.533-.053 2.04-.16a8.782 8.782 0 0 0 1.52-.56c.506-.213.893-.52 1.16-.92.266-.427.506-.88.72-1.36l1.76-3.92h.4l-.12 5.72c-1.12.587-2.374 1.067-3.76 1.44-1.387.373-2.907.56-4.56.56Z" fill="#fff"/><path d="M0 42h13.459V32.5a3.644 3.644 0 0 1 3.645-3.645 3.644 3.644 0 0 1 3.644 3.645V42h13.25V8C15.22 8 0 23.221 0 42Z" fill="url(#a)"/><defs><linearGradient id="a" x1="-8.536" y1="25" x2="59.606" y2="25" gradientUnits="userSpaceOnUse"><stop stop-color="#EDD49D"/><stop offset="1" stop-color="#E7D39E"/></linearGradient></defs></svg>