<svg width="56" height="56" viewBox="0 0 56 56" fill="none" xmlns="http://www.w3.org/2000/svg">
<path d="M28.0003 56C43.4641 56 56 43.4641 56 28.0003C56 12.5364 43.4641 1.0921e-05 28.0003 9.56907e-06C12.5364 8.21717e-06 3.10089e-06 12.5364 1.749e-06 28.0003C0.0174566 43.457 12.543 55.9827 28.0003 56ZM28.0003 2.80035C41.9178 2.80035 53.2002 14.0826 53.2002 28.0003C53.2002 41.9178 41.9178 53.2002 28.0003 53.2002C14.0826 53.2002 2.80034 41.9178 2.80034 28.0003C2.81623 14.0894 14.0894 2.81623 28.0003 2.80035Z" fill="#D9C38D"/>
<path d="M31.2793 38.854C31.8617 39.3632 32.746 39.3036 33.2551 38.7217C33.7637 38.1393 33.7043 37.255 33.1223 36.7459L23.1269 28.0003L33.1228 19.2542C33.7053 18.7451 33.7643 17.8607 33.2557 17.2789C32.7466 16.6964 31.8622 16.637 31.2797 17.1461L20.0799 26.9462C19.9296 27.0777 19.8092 27.2397 19.7267 27.4215C19.6441 27.6034 19.6015 27.8007 19.6015 28.0004C19.6015 28.2 19.6441 28.3974 19.7267 28.5792C19.8092 28.761 19.9296 28.9231 20.0799 29.0545L31.2793 38.854Z" fill="#D9C38D"/>
</svg>
