<svg width="53" height="22" viewBox="0 0 53 22" fill="none" xmlns="http://www.w3.org/2000/svg">
<g clip-path="url(#clip0_102_895)">
<path fill-rule="evenodd" clip-rule="evenodd" d="M0.799537 18.1903C0.809183 18.1037 0.82839 18.0171 0.847682 17.94L0.905388 17.6224C0.915035 17.5743 0.915035 17.5166 0.934284 17.4588C0.943888 17.4107 0.953491 17.3722 0.963137 17.3337C0.972783 17.2471 0.99199 17.1605 1.00164 17.0643C1.01128 16.9776 1.04014 16.891 1.04978 16.8237C1.04978 16.7659 1.13643 16.2751 1.15563 16.2366C1.15563 16.1596 1.27117 15.4378 1.29038 15.3993C1.30003 15.2646 1.34809 15.1105 1.35773 14.9758C1.36738 14.8218 1.42513 14.6197 1.44438 14.4657C1.45402 14.331 1.49252 14.1577 1.51177 14.023C1.52142 13.946 1.53098 13.8883 1.55027 13.8016C1.55992 13.7439 1.57917 13.6861 1.57917 13.6091C1.60802 13.5129 1.61767 13.33 1.64652 13.253C1.65616 13.1087 1.69466 12.9643 1.71391 12.8199C1.72352 12.7622 1.73312 12.7237 1.74277 12.6563C1.75241 12.6082 1.74277 12.5697 1.77166 12.5504C1.77166 12.4253 1.81976 12.3002 1.81976 12.1943C1.84866 12.0307 1.88716 11.8575 1.90641 11.6938C1.92566 11.5783 1.94491 11.4725 1.96416 11.357C1.97376 11.3185 1.98336 11.2319 1.99301 11.1934C2.00266 11.1357 2.01226 11.1164 2.01226 11.0587C2.02186 10.972 2.04111 10.8854 2.06036 10.7988C2.07001 10.7314 2.09886 10.6255 2.09886 10.5678C2.11811 10.4716 2.1374 10.3657 2.14701 10.2791C2.15665 10.0866 2.23365 9.89411 2.23365 9.69201C2.25286 9.64386 2.2818 9.48026 2.2818 9.43212C2.301 9.33587 2.3203 9.23002 2.32994 9.14337L2.41659 8.61403C2.42619 8.57553 2.42619 8.56589 2.42619 8.52739C2.42619 8.50814 2.42619 8.50814 2.43584 8.48889L2.44548 8.46964C2.44548 8.32529 2.49358 8.15204 2.51283 8.01729C2.51283 7.95959 2.56098 7.68045 2.58023 7.65155C2.58023 7.52645 2.61873 7.47835 2.61873 7.36281C2.62837 7.31466 2.66687 7.14146 2.66687 7.08371C2.66687 7.01636 2.68608 6.98751 2.69573 6.92011L2.77272 6.51587C2.77272 6.39077 2.79197 6.33298 2.81127 6.21748C2.82087 6.17898 2.84977 5.99609 2.85937 5.94803C2.86901 5.86139 2.88826 5.80364 2.89787 5.70743C2.90751 5.64004 2.98451 5.10105 3.01341 5.0722C3.01341 4.98555 3.02301 4.96635 3.04226 4.88935C3.05191 4.82195 3.09041 4.48511 3.1193 4.45621C3.1193 4.35036 3.13851 4.27336 3.1578 4.16747C3.17701 4.07122 3.17701 4.00387 3.2059 3.92687L3.3118 3.32053C3.3118 3.24349 3.39844 2.72379 3.41765 2.69494C3.41765 2.60829 3.49465 2.14635 3.5235 2.0886C3.5235 2.0212 3.57165 1.72286 3.59089 1.68432C3.59089 1.59771 3.61975 1.44376 3.63904 1.35712C3.63904 1.29937 3.76414 0.587176 3.77374 0.548634C3.77374 0.41393 3.82189 0.250287 3.84114 0.11554C3.84114 0.0385418 3.85074 0.0577914 3.86035 0H24.7935L24.6973 0.635193C24.6781 0.731441 24.7069 0.673692 24.6588 0.712191L24.6684 0.760337C24.6395 0.904687 24.5626 1.53992 24.5144 1.60727C24.5241 1.69392 24.4374 2.27136 24.3989 2.32911C24.4086 2.42532 24.3219 2.9066 24.2931 3.02205L24.2353 3.3493L24.0525 4.35027C24.0621 4.41763 23.9755 4.94697 23.9466 4.99511C23.9562 5.13946 23.8985 5.36085 23.8696 5.51485L23.783 6.0249C23.7733 6.04415 23.7733 6.04415 23.7733 6.06344L23.7637 6.0923C23.7733 6.16929 23.7541 6.35219 23.706 6.40989C23.7156 6.51574 23.6675 6.71789 23.6482 6.82374C23.629 6.93923 23.552 7.49743 23.5135 7.54553C23.5231 7.63218 23.4558 8.09412 23.4076 8.15191C23.4173 8.20002 23.3691 8.59461 23.321 8.65236C23.3402 8.77746 23.2248 9.2491 23.2055 9.4223C23.1766 9.52819 23.167 9.64369 23.1478 9.74954L23.0804 10.0864C23.09 10.1345 23.0322 10.6254 22.9745 10.7023C22.9937 10.7794 22.9649 10.9622 22.9168 11.02C22.9264 11.1066 22.8976 11.2028 22.8879 11.2991L22.7821 11.8284C22.7917 11.8958 22.7628 12.1172 22.7243 12.1653C22.734 12.2615 22.6858 12.5983 22.6377 12.6657C22.6473 12.7619 22.6185 12.8678 22.5992 12.9641C22.5895 13.0315 22.5703 13.2047 22.5318 13.2528C22.5414 13.3106 22.5318 13.3587 22.5222 13.4165C22.5222 13.4453 22.5125 13.4742 22.503 13.5031C22.4933 13.5608 22.503 13.532 22.4741 13.5705C22.4837 13.6379 22.4741 13.6763 22.4644 13.7341C22.4644 13.7533 22.4548 13.7918 22.4548 13.8111C22.4452 13.8688 22.4548 13.84 22.4259 13.8785L22.3682 14.3308C22.3297 14.4463 22.4067 14.2346 22.3586 14.3597C22.3586 14.3597 22.3489 14.3789 22.3489 14.3693C22.3489 14.3693 22.3489 14.379 22.3393 14.379C22.3489 14.4367 22.3393 14.4848 22.3297 14.5426L22.2912 14.6869C22.3104 14.7639 22.243 15.1681 22.2045 15.2259C22.2142 15.3221 22.1468 15.7745 22.0987 15.8323C22.1083 15.9285 22.0602 16.2846 22.012 16.3423C22.0217 16.4194 22.0024 16.5926 21.9639 16.6503C21.9735 16.737 21.9447 16.8428 21.9254 16.9391L21.858 17.3626C21.8484 17.4299 21.8099 17.6994 21.781 17.7571C21.8003 17.8534 21.7618 17.9785 21.7425 18.0844C21.7233 18.1806 21.7233 18.3154 21.6752 18.3828C21.6848 18.4694 21.6559 18.5657 21.6463 18.6523C21.6366 18.7293 21.6271 18.8448 21.5886 18.8928C21.6078 19.0084 21.5404 19.249 21.5212 19.3741C21.5019 19.4992 21.502 19.7302 21.4345 19.8168C21.4442 19.913 21.396 20.2691 21.3479 20.3269C21.3575 20.4135 21.2805 20.8947 21.242 20.9428C21.2517 21.0583 21.1843 21.3759 21.165 21.5106C21.1458 21.655 21.1746 21.6742 21.0303 21.6839H2.9362V21.6742C2.35871 21.6742 1.78127 21.6742 1.21342 21.6839H0.183594C0.193197 21.6068 0.212447 21.5202 0.231739 21.4336L0.308737 20.9332C0.318341 20.8947 0.33759 20.7214 0.356883 20.7022C0.356883 20.6445 0.424235 20.2017 0.443527 20.1728C0.443527 20.1055 0.462734 20.0092 0.47238 19.9515C0.684125 18.7195 0.520525 19.7879 0.77077 18.1613L0.799623 18.1902L0.799537 18.1903ZM5.18827 19.865H8.44136C9.45194 14.8891 10.7994 6.95853 11.6944 1.75171L8.4703 1.75167C8.5088 2.89695 5.34235 19.0083 5.19796 19.8746L5.18831 19.865H5.18827ZM13.3305 14.6003C13.3017 14.6677 13.292 14.7929 13.2824 14.8794C13.2728 14.9661 13.2343 15.072 13.2343 15.1682C13.2343 15.2259 13.2054 15.3029 13.1958 15.3607C13.1861 15.4281 13.1669 15.5147 13.1573 15.5917C13.138 15.6206 13.0899 15.9189 13.0899 15.9863C13.061 16.0248 12.984 16.5157 12.984 16.6023L12.8782 17.1412C12.8589 17.2856 12.8108 17.4011 12.83 17.5839C12.8589 17.8727 13.1091 18.0555 13.4171 18.0074C13.6481 17.9689 13.6288 17.9497 13.7828 17.863C13.8406 17.7668 14.0716 17.5743 14.0523 17.4203C14.0908 17.3626 14.1582 16.9199 14.1678 16.8525C14.1967 16.7274 14.2737 16.3424 14.2641 16.2461L14.2737 16.2173C14.2737 16.2076 14.3507 15.9863 14.3314 15.8515L14.3603 15.7553C14.3699 15.7264 14.3699 15.6879 14.3795 15.6494C14.3891 15.582 14.418 15.5051 14.3987 15.4377C14.4084 15.4185 14.4084 15.4377 14.4179 15.3992L14.4372 15.3125C14.4468 15.2451 14.4468 15.2451 14.4468 15.1874C14.4949 15.1297 14.5142 14.8698 14.5334 14.7736C14.5527 14.6485 14.6201 14.379 14.6104 14.2731L14.6778 13.9844C14.697 13.8785 14.726 13.7726 14.7163 13.6764C14.7452 13.6379 14.7452 13.5802 14.7355 13.5224C14.8222 13.3877 14.6874 12.868 14.6393 12.7236C14.5912 12.5889 14.3409 12.1846 14.264 12.1461C14.2447 12.098 14.033 11.8092 13.9849 11.7804C13.9656 11.7226 13.9849 11.7707 13.9464 11.7226L13.6769 11.3858L13.6095 11.2799C13.5229 11.1741 13.1187 10.6447 13.0802 10.6351C13.061 10.5677 12.8973 10.3752 12.8396 10.3078C12.7915 10.2501 12.6279 10.0191 12.5893 9.99987C12.5701 9.96137 12.3391 9.63413 12.3006 9.61488C12.2524 9.49938 12.1659 9.39349 12.0985 9.27803C12.0696 9.22989 12.0311 9.16254 12.0022 9.09514C11.983 9.04704 11.9541 8.95079 11.9252 8.91229C11.8867 8.6909 11.8675 8.58505 11.8771 8.34445L11.9637 7.72851L12.1081 6.92003C12.137 6.78532 12.214 6.43883 12.1948 6.32333C12.2429 6.25594 12.2814 5.94799 12.2814 5.8517C12.3199 5.80355 12.3969 5.31271 12.3873 5.24536C12.4546 5.13946 12.4835 4.68712 12.5316 4.52352C12.5508 4.38882 12.6279 4.09043 12.6183 3.97497C12.6375 3.95576 12.6279 3.97497 12.6375 3.93647L12.676 3.77287C12.6952 3.70548 12.7241 3.62848 12.7145 3.56113C12.7434 3.52263 12.7337 3.54188 12.753 3.48409C12.7626 3.45523 12.7722 3.43598 12.7819 3.40709C12.8011 3.34938 12.8204 3.31088 12.8204 3.24349C12.8685 3.19534 12.9263 3.03174 12.9551 2.95474L13.1091 2.666C13.1572 2.63711 13.2053 2.56011 13.2438 2.512C13.292 2.44461 13.3305 2.41576 13.3882 2.36761C13.4363 2.32911 13.7058 2.14626 13.7154 2.12701C13.8021 2.09816 13.8983 2.03081 13.9945 1.99231C14.0908 1.95377 14.1774 1.91527 14.2833 1.88641C14.5047 1.81906 14.6971 1.79021 14.9377 1.77092C15.6211 1.75171 16.3237 1.77092 17.0166 1.77092C17.6807 1.77092 18.3063 1.82862 18.6624 2.21361C18.7394 2.29061 18.903 2.512 18.9512 2.64675C18.9897 2.76225 19.0378 2.84885 19.0666 2.97399C19.0955 3.1087 19.1051 3.23384 19.1051 3.39744C19.1051 3.45519 19.0955 3.56108 19.0859 3.63804C19.0763 3.71504 19.0571 3.81129 19.0571 3.89793C19.0474 3.98457 19.0186 4.09043 19.0089 4.17703C18.9993 4.27328 18.98 4.40802 18.9512 4.48502C18.9512 4.55237 18.9223 4.65827 18.9127 4.73527C18.8935 4.83147 18.8742 4.92776 18.8645 5.01436C18.8549 5.04322 18.8164 5.26461 18.8164 5.30311C18.8068 5.3705 18.7876 5.44746 18.7683 5.53406C18.7491 5.63031 18.7298 5.71695 18.7298 5.81316C18.7009 5.8998 18.6913 6.0153 18.6721 6.12115C18.6528 6.24625 18.6336 6.34254 18.6143 6.45799C18.6143 6.52539 18.5758 6.68895 18.5662 6.74674C18.5566 6.80449 18.5566 6.82374 18.547 6.89113C18.5373 6.93923 18.5181 6.99698 18.5181 7.06433C18.5085 7.13173 18.4892 7.21833 18.47 7.29533C18.4507 7.38197 18.4315 7.47818 18.4315 7.55518C18.4219 7.61293 18.4026 7.68992 18.3834 7.76692L15.8136 7.77657C15.8136 7.59372 15.9291 7.26648 15.9195 7.09319C15.9676 7.03548 16.0157 6.6697 16.0061 6.58314C16.0253 6.55424 16.0157 6.58314 16.0253 6.53499L16.1023 6.0249C16.1601 5.95751 16.2082 5.40896 16.2467 5.28381C16.2659 5.14907 16.3237 4.94697 16.3141 4.82182C16.3526 4.76412 16.3526 4.61972 16.3814 4.55237L16.3911 4.45613L16.4199 4.33102C16.497 3.95568 16.3526 3.62844 15.958 3.62844C15.6404 3.62844 15.3131 3.82093 15.2169 4.09043C15.1977 4.13857 15.1977 4.16742 15.1784 4.20592C15.1592 4.30217 15.1303 4.43692 15.1303 4.53317C15.1111 4.61981 15.1014 4.67752 15.0821 4.77376C15.0629 4.87001 15.0436 4.94701 15.0436 5.05286L15.0051 5.19721L14.9762 5.37046C14.957 5.49556 14.9281 5.61106 14.9185 5.7266C14.8897 5.7458 14.8993 5.80359 14.8897 5.8517C14.88 5.91905 14.8704 5.93834 14.8608 5.99605C14.8511 6.08269 14.8126 6.20779 14.8126 6.29444C14.7934 6.37144 14.7838 6.43879 14.7645 6.53504C14.7453 6.63124 14.726 6.70828 14.726 6.81413C14.6971 6.85263 14.6586 7.13173 14.649 7.22798C14.6393 7.29533 14.6201 7.56482 14.6393 7.63222C14.6586 7.68992 14.6201 7.65143 14.6682 7.68036C14.6201 7.81507 14.7933 8.15196 14.8703 8.2867C14.9185 8.3637 14.8607 8.31556 14.9377 8.3541C14.9281 8.4022 14.9281 8.3637 14.9377 8.4022C14.9377 8.42145 14.9569 8.4407 14.9666 8.45995L15.4286 9.08554C15.4671 9.11439 15.3997 9.08554 15.4671 9.11439C15.4671 9.1721 15.698 9.44164 15.7462 9.48013L16.0927 9.88437C16.0927 9.89402 16.0734 9.89402 16.1215 9.96137L16.5546 10.5004L16.7952 10.7988C16.8626 10.8854 16.8337 10.8661 16.8914 10.895C16.9011 10.9527 17.0358 11.1163 17.0743 11.1837C17.1513 11.2992 17.2187 11.4628 17.2764 11.4917C17.2572 11.5494 17.2668 11.5109 17.2956 11.5783C17.3149 11.6072 17.3149 11.6168 17.3341 11.665L17.4592 12.0211C17.4978 12.1655 17.4689 12.1751 17.517 12.2136C17.4689 12.3291 17.4978 12.5024 17.4978 12.6274C17.4881 12.7045 17.4785 12.7237 17.4785 12.82C17.4593 12.8488 17.3919 13.3204 17.3919 13.3974C17.363 13.4263 17.3919 13.3878 17.3727 13.4359C17.3727 13.4455 17.363 13.5033 17.363 13.5033C17.3534 13.5707 17.3438 13.6091 17.3438 13.6669C17.3246 13.7054 17.2572 14.1 17.2572 14.1577C17.238 14.2348 17.2187 14.3503 17.209 14.4465C17.1994 14.5524 17.1609 14.6486 17.1609 14.7737C17.1417 14.793 17.1417 14.8411 17.132 14.8796C17.1224 14.9373 17.1224 14.9663 17.1128 15.0143C17.0936 15.1106 17.0839 15.2165 17.0647 15.3031C17.0647 15.3993 17.0166 15.5341 17.0166 15.6496C16.9973 15.6785 16.9684 15.8709 16.9684 15.9287C16.9492 16.0634 16.9107 16.1981 16.9011 16.3425C16.8818 16.3906 16.8337 16.6793 16.8337 16.7563C16.8048 16.7755 16.8048 16.8525 16.8048 16.8911C16.7952 16.9584 16.7856 16.9873 16.7759 17.0547C16.7567 17.1702 16.7278 17.2953 16.7182 17.4108C16.699 17.4589 16.6797 17.5648 16.6701 17.6225C16.6509 17.6899 16.6219 17.7958 16.6124 17.8728L16.4487 18.3348C16.3621 18.5465 16.2562 18.6716 16.2178 18.7679C16.1985 18.7775 16.083 18.9411 16.0542 18.9796C16.0157 19.0277 16.006 19.0373 15.9675 19.0855L15.8617 19.201C15.7847 19.3068 15.4767 19.5282 15.3323 19.5859C15.2553 19.6148 15.1879 19.6341 15.1109 19.6822C15.0243 19.6918 14.6874 19.8073 14.3795 19.8169L13.5229 19.8361C13.3593 19.8361 13.2534 19.8554 13.1091 19.8554L11.9926 19.8555C11.8868 19.8555 11.8675 19.8362 11.7712 19.8362C11.7231 19.8362 11.5884 19.8074 11.5307 19.7977C11.4921 19.7881 11.4633 19.7881 11.4151 19.7785C11.367 19.7689 11.3478 19.7496 11.29 19.7496C10.9532 19.6726 10.8569 19.5571 10.6837 19.432C10.6548 19.4128 10.6741 19.4224 10.6548 19.4128C10.6259 19.3647 10.6548 19.4032 10.6163 19.3551C10.6067 19.3359 10.5971 19.3359 10.5875 19.3166L10.2602 18.7006C10.2506 18.614 10.2217 18.537 10.2121 18.4504C10.2024 18.3542 10.2217 18.2675 10.2024 18.1809C10.2313 18.1232 10.2698 17.6804 10.2795 17.5746C10.2987 17.4206 10.3757 17.103 10.3661 16.9779C10.4046 16.9201 10.4335 16.718 10.4238 16.6506L10.4335 16.6217C10.4335 16.6217 10.5201 16.3041 10.5008 16.179C10.5393 16.1309 10.6356 15.5631 10.6259 15.4764L10.6644 15.3321C10.6741 15.2647 10.6933 15.2262 10.6741 15.1685L10.6933 15.1107C10.6933 15.1011 10.7029 15.0626 10.7029 15.053C10.7126 15.0145 10.7126 14.976 10.7221 14.9375C10.7318 14.8605 10.7607 14.7739 10.751 14.6969C10.7992 14.6295 10.8472 14.3119 10.8377 14.2157C10.8762 14.158 10.9531 13.619 10.9724 13.5035C11.0301 13.4554 12.1851 13.4843 12.2524 13.4843H13.5614L13.4652 14.0521L13.4267 14.2735C13.4074 14.3793 13.3689 14.4852 13.3689 14.6007H13.3304L13.3305 14.6003Z" fill="#686972"/>
<path fill-rule="evenodd" clip-rule="evenodd" d="M32.4825 8.36346L32.5595 9.57618C32.5691 9.64358 32.5691 9.69168 32.5691 9.78793C32.5691 9.88418 32.5883 9.89378 32.5883 9.99003C32.5883 10.2595 32.6365 10.5386 32.6365 10.8177L32.6653 11.2124C32.6845 11.3567 32.6845 11.4915 32.6845 11.6358C32.6845 11.7513 32.7134 11.9149 32.723 12.0304L32.7519 12.6272C32.7519 12.7234 32.7711 12.7427 32.7711 12.8293L32.8193 13.657C32.8193 13.7532 32.8385 13.7628 32.8385 13.8591C32.8385 14.0997 32.8674 14.2152 32.8674 14.475L32.9059 14.8889L31.1928 14.8888L31.5104 13.2527C31.5585 12.9736 31.6259 12.7137 31.674 12.4346C31.6932 12.2998 31.7221 12.1747 31.751 12.0303C31.7799 11.886 31.8087 11.7609 31.828 11.6165L32.1456 9.98034C32.2033 9.71089 32.2418 9.43179 32.3092 9.16225L32.4247 8.55587C32.4343 8.51737 32.4343 8.50777 32.4439 8.45002L32.4728 8.34417L32.4824 8.36338L32.4825 8.36346ZM41.7605 11.2316H40.0954C40.028 11.2316 40.0569 11.1738 40.0569 11.0968L40.2494 8.04587C40.2494 7.94962 40.2686 7.94001 40.2686 7.85337L40.3264 6.83319C40.336 6.76579 40.336 6.70808 40.336 6.63104C40.336 6.45784 40.3841 6.0247 40.3841 5.8226C40.3841 5.7264 40.4033 5.70711 40.4033 5.62051L40.4226 5.20666C40.4322 5.09116 40.4514 4.91792 40.4514 4.79282H42.232C42.7228 4.79282 42.5784 5.15856 42.5784 5.54355L42.3571 8.98909C42.3571 9.06609 42.3667 9.13344 42.3571 9.21049C42.3089 9.64358 42.3089 10.2018 42.2608 10.6253C42.232 10.8852 42.3378 11.222 41.7604 11.222V11.2316L41.7605 11.2316ZM30.1148 20.2016C30.1533 20.0187 30.1918 19.8166 30.2303 19.6337C30.2688 19.4316 30.3074 19.2487 30.3459 19.0466C30.3844 18.8541 30.4229 18.6616 30.4614 18.4596C30.4999 18.267 30.5384 18.0649 30.5865 17.8821L33.1273 17.8821C33.1273 18.0457 33.1754 18.3055 33.1754 18.4691C33.1851 18.7579 33.2332 19.0562 33.2428 19.345C33.2525 19.5375 33.291 19.7396 33.291 19.9417C33.291 20.0283 33.2813 20.2016 33.3583 20.2016H39.4314C39.5084 20.2016 39.4795 20.0668 39.4988 19.8743C39.518 19.6337 39.518 19.3738 39.5469 19.1332C39.5565 19.0755 39.5469 19.0081 39.5469 18.9504L39.6143 18.0168C39.6335 17.8436 39.6239 17.6222 39.6528 17.449C39.6817 17.2661 39.672 17.0736 39.6913 16.8811C39.7009 16.8234 39.6913 16.7656 39.7009 16.6982L39.7971 15.2064C39.7971 15.1294 39.7971 15.0813 39.8068 15.0043C39.8357 14.7926 39.8549 14.4558 39.8549 14.244H40.2976C40.365 14.244 40.3553 14.3307 40.3746 14.3884L40.8654 16.448C40.9231 16.6886 40.9905 16.9677 41.0483 17.2083C41.2408 17.959 41.4237 18.7001 41.5873 19.4604L41.722 20.0283C41.7412 20.0957 41.7317 20.1919 41.799 20.1919H45.62C45.62 20.1052 45.5526 19.9128 45.5237 19.8165L45.1291 18.344C44.9751 17.7184 44.7826 17.1024 44.6286 16.4769C44.4746 15.8609 44.2821 15.2353 44.1378 14.6194C44.1089 14.4943 44.0608 14.3691 44.0319 14.244C44.5035 14.244 44.8596 14.1189 45.1195 13.9072C45.5526 13.5607 45.8221 13.0313 45.8125 12.4442L46.0242 9.0757C46.0434 8.96984 46.0338 8.8351 46.053 8.73885L46.0915 8.05547C46.0915 7.97847 46.1012 7.95926 46.1108 7.90147C46.1204 7.83412 46.1108 7.78597 46.1204 7.71862C46.1493 7.55502 46.1396 7.38178 46.1493 7.21813L46.1974 6.54444C46.207 6.3808 46.207 6.1883 46.2263 6.0247L46.284 5.00452H47.4293C47.4293 5.32212 47.3811 5.63011 47.3811 5.94771L47.3137 6.89089C47.2945 7.05449 47.3041 7.20849 47.2945 7.37209L47.2271 8.31527C47.2271 8.48852 47.2175 8.65212 47.1983 8.79647L46.9673 12.5885C46.9481 12.7233 46.9481 12.9254 46.9384 13.0601C46.9384 13.1468 46.9192 13.1756 46.9192 13.2815L46.6112 18.2863C46.6016 18.4306 46.5727 18.6038 46.5727 18.7482L46.515 19.7011C46.4958 19.8454 46.4861 20.0187 46.4861 20.1823H50.259C50.336 20.1823 50.3071 20.0764 50.3071 19.9898C50.3071 19.8358 50.3456 19.6818 50.3456 19.5086L50.4226 18.3151C50.4419 18.19 50.4515 17.9879 50.4515 17.8435C50.4515 17.7569 50.4707 17.7184 50.4707 17.6029C50.4707 17.4874 50.49 17.4586 50.49 17.3623C50.49 17.2372 50.4996 17.0159 50.5188 16.8907C50.5477 16.7271 50.5285 16.5635 50.5477 16.3998C50.5573 16.2555 50.5766 16.0919 50.5766 15.9379L50.6151 15.4567C50.6151 15.3508 50.6247 15.3123 50.6343 15.2353L50.6728 14.4942C50.692 14.2151 50.7305 13.8301 50.7402 13.551L50.7883 12.5885C50.798 12.4442 50.8268 12.2806 50.8268 12.1266C50.8268 11.963 50.8557 11.7994 50.8653 11.6454C50.875 11.3085 50.9038 11.0198 50.9135 10.6829L51.2503 5.45682C51.2599 5.37018 51.2599 5.30282 51.2599 5.20658C51.2599 5.11993 51.2792 5.08147 51.2792 4.96598H53.7815C53.7141 4.68688 53.666 4.39814 53.5986 4.09979L53.3388 2.80046C53.3099 2.64647 53.281 2.51172 53.2521 2.35777C53.2232 2.22302 53.1944 2.06902 53.1655 1.93428C53.1366 1.78028 53.0884 1.63589 53.0884 1.48193H46.1588C46.1492 1.54933 46.13 1.59747 46.1107 1.65518C46.053 1.81878 45.976 2.00167 45.9375 2.16527H45.899C45.8798 2.09788 45.8123 2.04973 45.7642 2.00163C45.6584 1.89578 45.5333 1.82843 45.4081 1.76103C45.0905 1.56854 44.59 1.48193 44.1665 1.48193H36.9097C36.9097 1.74182 36.8712 1.94392 36.8712 2.18452C36.8712 2.26156 36.8615 2.29042 36.8615 2.33852C36.8519 2.40591 36.8615 2.46362 36.8519 2.52141C36.8423 2.61762 36.8327 2.77165 36.823 2.8679C36.8134 2.92561 36.823 2.9834 36.823 3.04111L36.7653 3.92659C36.7364 4.13833 36.7268 4.71582 36.7076 4.98527L36.6787 5.50501C36.6787 5.68786 36.6402 5.84185 36.6402 6.01506L36.5343 7.59348C36.5247 7.88222 36.4766 8.18057 36.4862 8.46931C36.4862 8.75806 36.4477 9.0564 36.4381 9.34515L36.3033 11.424C36.3033 11.8379 36.2359 12.2613 36.2359 12.6752H36.2167C36.2167 12.3287 36.0916 11.6742 36.0627 11.2893L36.0339 11.0583C36.0242 10.9621 36.0242 10.9139 36.0146 10.8273L35.6874 8.06511C35.6007 7.45873 35.5623 6.82354 35.466 6.2268L35.4083 5.76486L34.9174 1.60708C34.8982 1.43383 34.8789 1.49158 34.5132 1.49158L30.8944 1.49154L30.2399 4.19599C29.7298 6.22676 29.2582 8.26713 28.7481 10.3075C28.6904 10.5289 28.6326 10.7599 28.5845 10.9813L27.5162 15.3797L27.4295 15.7261L26.4382 19.7972C26.4286 19.8261 26.3516 20.1341 26.3516 20.1341C26.3612 20.1822 26.3516 20.163 26.4093 20.163H30.1147V20.2015L30.1148 20.2016Z" fill="#686972"/>
</g>
<defs>
<clipPath id="clip0_102_895">
<rect width="52.3379" height="21.6839" fill="white" transform="translate(0.183594)"/>
</clipPath>
</defs>
</svg>
